# xmcd
#
# Track frame offsets:
#	150
#	12575
#	29650
#	41379
#	57412
#	64813
#	77391
#	91058
#	102788
#	118352
#	131100
#	142005
# Disc length: 2174 seconds
# Revision: 1
# Processed by: cddbd v1.5.2PL0 Copyright (c) Steve Scherf et al.
#
# Submitted via: libkcddb 0.31
#
DISCID=a6087c0c
DTITLE=Hunter Berry - Wow Baby
DYEAR=2007
DGENRE=Bluegrass
TTITLE0=Wow Baby
TTITLE1=In The Pines
TTITLE2=Billy In The Low Ground
TTITLE3=Blue Kentucky Girl
TTITLE4=Leather Britches
TTITLE5=Hard Living
TTITLE6=Waltz For Mom And Dad
TTITLE7=Rag Time Annie
TTITLE8=Kansas City Kitty
TTITLE9=I'm Waiting To Hear You Call Me Darlin
TTITLE10=Fiddlers Dream
TTITLE11=Softly And Terderly
EXTD=
EXTT0=
EXTT1=
EXTT2=
EXTT3=
EXTT4=
EXTT5=
EXTT6=
EXTT7=
EXTT8=
EXTT9=
EXTT10=
EXTT11=
PLAYORDER=
